<?xml version="1.0" encoding="UTF-8"?><svg xmlns="http://www.w3.org/2000/svg" viewBox="0 0 513.73 513.68"><defs><style>.d{fill:#1d1d1b;}.d,.e{stroke:#fff;stroke-miterlimit:10;stroke-width:2px;}.e{fill:#f8ab11;}</style></defs><g id="a"/><g id="b"><g id="c"><g><path class="d" d="M75.63,461.36c2.8,0,4.62,2.95,3.37,5.45l-7.84,15.67-14.06,28.12c-.64,1.28-1.94,2.08-3.37,2.08H4.77c-2.8,0-4.62-2.95-3.37-5.45l12.37-24.75,9.53-19.04c.64-1.28,1.94-2.08,3.37-2.08h48.95Z"/><path class="e" d="M93.8,437.22l-3.63,7.26c-.64,1.28-1.94,2.08-3.37,2.08H37.84c-2.8,0-4.62-2.95-3.37-5.45l3.63-7.26c.64-1.28,1.94-2.08,3.37-2.08h48.96c2.8,0,4.62,2.95,3.37,5.45Z"/><path class="e" d="M108.6,407.62l-3.63,7.26c-.64,1.28-1.94,2.08-3.37,2.08H52.64c-2.8,0-4.62-2.95-3.37-5.45l3.63-7.26c.64-1.28,1.94-2.08,3.37-2.08h48.96c2.8,0,4.62,2.95,3.37,5.45Z"/><path class="e" d="M123.39,378.02l-3.62,7.25c-.64,1.28-1.94,2.08-3.37,2.08h-48.96c-2.8,0-4.62-2.95-3.37-5.45l3.62-7.25c.64-1.28,1.94-2.08,3.37-2.08h48.96c2.8,0,4.62,2.95,3.37,5.45Z"/><path class="d" d="M165.71,305.58h115.51c2.8,0,4.62,2.95,3.37,5.45l-21.89,43.78c-.64,1.28-1.94,2.08-3.37,2.08H82.67c-2.8,0-4.62-2.95-3.37-5.45l22.93-45.87,7.4-14.8,7.4-14.8,7.4-14.8,7.4-14.8,6.53-13.05,.87-1.75,7.4-14.79,2.29-4.58,12.51-25.02,6.48-12.95,.92-1.85,14.8-29.6,2.62-5.23,4.78-9.57,7.4-14.8,7.4-14.79,22.34-44.68L253.5,3.08c1.39-2.78,5.35-2.78,6.74,0l25.32,50.64,22.35,44.68,16.85,33.71c1.25,2.51-.57,5.45-3.37,5.45h-48.96c-1.43,0-2.73-.81-3.37-2.08l-3.75-7.49-5.08-10.16c-1.39-2.78-5.35-2.78-6.74,0l-5.08,10.16-4.78,9.57-2.62,5.23-7.4,14.8-7.4,14.8-.92,1.85-6.48,12.95-12.51,25.02-2.29,4.58-7.4,14.79-.87,1.75-6.53,13.05-7.4,14.8-14.8,29.6-4.67,9.35c-1.25,2.51,.57,5.45,3.37,5.45Z"/><path class="e" d="M358.72,212.21h-48.95c-1.43,0-2.73-.81-3.37-2.08l-15.22-30.43c-1.25-2.51,.57-5.45,3.37-5.45h48.95c1.43,0,2.73,.81,3.37,2.08l2.54,5.09,12.68,25.35c1.25,2.51-.57,5.45-3.37,5.45Z"/><path class="d" d="M508.96,512.68H189.86c-2.8,0-4.62-2.95-3.37-5.45l12.37-24.75,9.52-19.04c.64-1.28,1.94-2.08,3.37-2.08h214.17c2.8,0,4.62-2.95,3.37-5.45l-49.5-99.01-25.67-51.32-4.71-9.42-28.69-57.38h0c-1.25-2.5,.57-5.45,3.37-5.45h48.96c1.43,0,2.73,.81,3.37,2.09l1.68,3.36,33.4,66.8,25.67,51.32,52.23,104.46,22.93,45.87c1.25,2.51-.57,5.45-3.37,5.45Z"/></g></g></g></svg>